<svg xmlns="http://www.w3.org/2000/svg" viewBox="0 0 181.92 221.8"><defs><style>.cls-1{fill:#212121;}</style></defs><title>Asset 1</title><g id="Layer_2" data-name="Layer 2"><g id="Layer_1-2" data-name="Layer 1"><path class="cls-1" d="M181.92,162.91v1a37.84,37.84,0,0,0-2.17,4.13c-6.54,17-15.8,32.24-28.78,45.09-8.14,8.06-17.8,10.66-28.85,7-3.62-1.2-7.18-2.6-10.78-3.84-7.29-2.53-14.69-4.58-22.44-2.58a166.43,166.43,0,0,0-16.11,4.94c-16.25,6-26,3.65-37.41-9.35a139.59,139.59,0,0,1-28.9-50.77C.12,138.22-2.61,117.63,3.17,96.7c8.55-31,39.74-52.76,72.18-38.33,11.68,5.2,22.29,5.16,33.79-.14a52.78,52.78,0,0,1,37.47-3.16c12,3.44,21.95,9.7,28.09,19-6.22,7.23-13.17,13.12-17.35,20.56C145.24,116.17,151.19,149.29,181.92,162.91Z"/><path class="cls-1" d="M135.29.1a47.07,47.07,0,0,1-9.36,32.39C118.51,42.67,109.31,50,96.19,51.22c-5.53.5-6.24,0-6.08-5.33.58-20,16-40.61,40.43-45.75A25.54,25.54,0,0,1,135.29.1Z"/></g></g></svg>