<svg xmlns="http://www.w3.org/2000/svg" viewBox="0 0 1667 1167"><defs><style>.cls-1{fill:#ddddd5;}</style></defs><title>Asset 2</title><g id="Layer_2" data-name="Layer 2"><g id="Layer_1-2" data-name="Layer 1"><path class="cls-1" d="M766,0H866a6.64,6.64,0,0,0,2.16.83c11.3.06,22.6.06,33.9.06q60.16,1,120.34,2c32.12.58,64.25,1.11,96.36,2C1161.51,6.1,1204.29,7,1247,9.28c53.66,2.91,107.28,6.68,160.84,11A387.53,387.53,0,0,1,1500,39c56.64,19,96.69,55.57,119.26,111.18,13,32.12,21.18,65.52,25.55,99.7,5,38.78,9.42,77.68,12.13,116.66,3.9,56.26,6,112.64,8.92,169,.2,3.84.75,7.66,1.14,11.49v74a11.62,11.62,0,0,0-1,3c-1.33,31.6-2.46,63.2-3.9,94.79-3,66.37-7.68,132.62-17.23,198.42-4.72,32.48-11.81,64.45-24,95.09-13.5,34.08-33.11,63.66-63,85.72-26.16,19.31-55.84,30.54-87.13,38-31.67,7.58-63.88,11.23-96.32,13.26-43.85,2.73-87.65,6.31-131.52,8.41-47.55,2.28-95.15,3.48-142.74,4.76-40.78,1.09-81.57,1.71-122.36,2.38-32.47.52-64.95.79-97.43,1.23a13.87,13.87,0,0,0-3.46,1H789a18.54,18.54,0,0,0-4-1c-39.28-.66-78.57-1.22-117.85-1.89-35.12-.6-70.24-1.17-105.36-2-36.93-.91-73.9-1.32-110.78-3.39q-97.66-5.48-195.22-12.88a361.92,361.92,0,0,1-90.56-18.94c-54.68-18.78-93.66-54.35-116.11-107.84C34.2,983.52,25.9,946.23,21.22,908.2,16.59,870.55,12.47,832.79,10,795,6.21,737,4,679,1.14,621c-.2-4-.75-8-1.14-12V557a11.62,11.62,0,0,0,1-3c1.33-33.1,2.45-66.2,3.9-99.29,3-67.87,7.62-135.62,17.22-202.93C26.9,218,34.2,184.76,47,152.91,61.7,116.2,83.71,85.2,117.21,63.19,148.1,42.9,182.7,32.73,218.57,26c33.46-6.3,67.37-8.72,101.24-10.64q102.45-5.8,205-10c42.58-1.72,85.22-2,127.84-2.79,36.47-.65,73-1,109.42-1.57A18.42,18.42,0,0,0,766,0Zm334.64,582.67L668.22,332.88V832.46Z"/><path class="cls-1" d="M902,0a1.25,1.25,0,0,0,.06.89c-11.3,0-22.6,0-33.9-.06A6.64,6.64,0,0,1,866,0Z"/><path class="cls-1" d="M823,1167h0Z"/></g></g></svg>