<svg xmlns="http://www.w3.org/2000/svg" viewBox="0 0 181.67 221.81"><defs><style>.cls-1{fill:#ddddd5;}</style></defs><title>Asset 3</title><g id="Layer_2" data-name="Layer 2"><g id="Layer_1-2" data-name="Layer 1"><path class="cls-1" d="M135.67,221.81h-10c-6.9-2.44-13.71-5.2-20.74-7.2-4.07-1.16-8.76-2.25-12.7-1.35-9.66,2.23-19.06,5.63-28.56,8.55h-12c-5.16-3.73-11.25-6.66-15.34-11.33-26.06-29.72-40-63.9-35.49-104,1.91-17,9.45-31.48,23.23-42,16-12.14,33.57-14.43,51.82-6,10.88,5,21.15,5.24,31.72-.1a23.78,23.78,0,0,1,2.77-1.09c10.13-3.58,20.35-5.64,31.22-3.47,14.13,2.83,25.64,9.45,34,21.55-1.36,1-2.58,1.8-3.79,2.67C153.89,90.91,147,112.2,154,133.15c4.72,14.06,14.52,23.44,27.68,29.66v1c-3,6.48-5.48,13.27-9.09,19.38C163.31,198.88,154.71,215.39,135.67,221.81Z"/><path class="cls-1" d="M90.28,50.75C86.25,27.54,110,0,134.73,0,139.19,23,114.7,55.31,90.28,50.75Z"/></g></g></svg>