<svg xmlns="http://www.w3.org/2000/svg" viewBox="0 0 885.91 886.91"><defs><style>.cls-1{fill:#212121;}</style></defs><title>Asset 2</title><g id="Layer_2" data-name="Layer 2"><g id="Layer_1-2" data-name="Layer 1"><path class="cls-1" d="M223.91,0h439c5.29.34,10.58.76,15.88,1,21,1,41.92,2.63,62.34,8,57,15,98.71,48.89,124.45,102,10.73,22.14,16,45.83,18.41,70.21.55,5.59,1.27,11.18,1.92,16.77V689c-.65,5.59-1.37,11.18-1.92,16.78-2.78,28.31-9.54,55.52-23.55,80.46-29.31,52.17-73.84,83.33-132.4,94.68-25,4.84-50.32,5.75-75.64,5.8q-195.24.3-390.46.18c-27.16,0-54.32-.1-81.39-2.83-28.3-2.86-55.49-9.64-80.39-23.76-56-31.75-87-80.37-96.07-143.52C.73,693.48.14,670,.11,646.47Q-.07,461,0,275.52c0-23.33.28-46.66,1-70A289.27,289.27,0,0,1,7.9,149.59C24.94,75.3,83.24,19.64,158.35,6.14A371.54,371.54,0,0,1,215.52.8C218.32.73,221.11.28,223.91,0ZM772.33,442.63c-.43-33.85-.65-68.51-1.42-103.16-.39-17.29-1.61-34.57-2.79-51.84a197.9,197.9,0,0,0-13.2-58.58q-26.55-68.19-94.15-96.44c-27.09-11.33-55.65-15.27-84.64-16.54-22.63-1-45.3-1.47-67.95-1.58q-66.23-.31-132.47.07c-29.63.15-59.27.43-88.82,3.25-21.11,2-41.64,6.4-61.32,14.29-38.94,15.6-68.17,42.13-87.58,79.27-12.07,23.08-18.43,48-21,73.73-1.75,17.87-2.8,35.86-3,53.81-.54,43.32-.62,86.65-.49,130,.1,32.15.82,64.3,1.27,96.45a339.8,339.8,0,0,0,5,55c4,22.55,11,44.11,22.87,63.78,28.62,47.64,71.83,73.47,125.74,82.87,20.39,3.55,41.06,4.29,61.68,4.88,27.47.78,55,1,82.47,1,58.13,0,116.29.88,174.37-2.82,17.44-1.11,34.65-3.45,51.5-8.13,25.46-7.07,48.7-18.38,68.84-35.76,33.23-28.67,51.12-65.65,58.65-108.19,3.66-20.7,4.42-41.71,4.94-62.64C771.75,518.1,771.87,480.77,772.33,442.63Z"/><path class="cls-1" d="M713.15,443.94c-.45,36.82-.59,73.65-1.48,110.47-.46,19.26-1.18,38.59-4.85,57.62-6.7,34.85-23.44,63-54.73,81.17-14.79,8.59-31,13.39-47.89,15.74-34.08,4.72-68.43,4.4-102.7,4.73-42.66.42-85.32.22-128-.1q-32.47-.23-64.93-1.85c-18.42-.93-36.76-3-54.38-9.09-36.93-12.74-60.9-37.91-72.22-75.24a170.48,170.48,0,0,1-6.07-31.67c-3.58-33.85-3.3-67.85-3.63-101.8-.39-39-.17-78,.15-117,.18-22.15.65-44.31,1.75-66.43,1-20.75,3.46-41.39,11.24-60.93,13.49-33.93,38.05-55.79,72.82-66.43a179.26,179.26,0,0,1,41.62-7.08c70.75-4.37,141.58-2.64,212.38-2.59,21.14,0,42.31.65,63.43,1.75s42,3.59,61.81,11.66c26.27,10.68,45.7,28.46,58.11,54a142.77,142.77,0,0,1,13.25,48.22c3.62,35,3.46,70.17,3.89,105.31.2,16.49,0,33,0,49.49Zm-271,168.59C533.06,613,611,540,611.59,444.39c.57-96-77.9-169.26-167.76-169.89-92.68-.66-167.56,74.54-170.28,163.66C270.66,532.69,347.09,612.65,442.12,612.53Zm215-344.18c1-21.87-18.62-39.18-38.18-39.67-22-.55-40.43,18.27-40.55,39s16.66,40.1,39.64,40C641.79,307.54,658,287.43,657.16,268.35Z"/><path class="cls-1" d="M552.47,443.36A110.28,110.28,0,0,1,441,553.39c-59.94-.71-111.27-51.55-108.23-115.46,2.72-57.13,51.33-105.1,111.4-104.2A110.27,110.27,0,0,1,552.47,443.36Z"/></g></g></svg>