<svg xmlns="http://www.w3.org/2000/svg" viewBox="0 0 1330 1331"><defs><style>.cls-1{fill:#ddddd5;}</style></defs><title>Asset 2</title><g id="Layer_2" data-name="Layer 2"><g id="Layer_1-2" data-name="Layer 1"><path class="cls-1" d="M1330,684v9a27.7,27.7,0,0,0-1,4.6c-1.89,35.15-5.93,70.06-13.36,104.48q-46.18,213.92-209.06,360.21c-68.88,61.8-147.7,106.71-235.6,135.56-59.08,19.39-119.82,29.72-181.91,32.24L639,1330c-52.76-2.43-104.69-10.13-155.49-24.78-124.33-35.84-230-101.78-315.61-198.71Q17.06,935.82,1.72,708A95.15,95.15,0,0,0,0,698V688c.35-.71,1-1.42,1-2.12Q1.07,660.44,1,635a649.37,649.37,0,0,1,23.54-147.7q56-197.46,212.57-330.27Q348.2,62.94,488.85,24.45A666.4,666.4,0,0,1,637.63,1.35c2.32.1,4.63.29,6.94.28q18.18,0,36.38-.16c3.81,0,7.62-.06,11.42-.09,42.36,2,84.27,7.32,125.53,17.19C932.3,45.94,1033.11,99.21,1118.5,180q191.25,181,209.79,444.4c.35,4.87,1.13,9.71,1.71,14.56v7c-.29.39-.82.77-.82,1.16q-.06,17.82,0,35.65C1329.2,683.21,1329.72,683.6,1330,684ZM568.49,352.52C502.06,352.41,436,357,370.32,367.24c-41,6.41-81.57,14.91-121.19,27.37a62.11,62.11,0,0,0,35.74,118.95c6.58-1.82,13.11-3.82,19.7-5.59,66.09-17.78,133.57-26.42,201.77-29.7,101.95-4.9,203.16,1.77,303.3,21.93,87.67,17.65,172,44.79,249.51,90.52a59,59,0,0,0,29,8.15,62.3,62.3,0,0,0,61.41-45.07,61.52,61.52,0,0,0-27.89-70.34c-15.63-9.18-31.59-17.9-47.83-26-68.07-33.81-139.86-57-213.86-73.56C764.05,362.41,666.77,352.72,568.49,352.52Zm.72,228.77c-75.51,0-130.15,4.26-191.39,16.11-31,6-61.73,13.82-92.08,22.56-26.74,7.7-41,37.16-32.82,63.68,8.66,28.2,37,42.88,66.56,34,52.22-15.66,105.59-25,159.84-29.4a905.57,905.57,0,0,1,152.27.55,930.48,930.48,0,0,1,118.95,17.9c81.56,17.92,159.12,46.11,230.68,89.76,10.81,6.59,22.77,8.4,35.17,6,21.29-4.16,37.66-20.51,41.46-41,4.08-22-5.37-42.75-25.24-54.9A753.06,753.06,0,0,0,916.92,649,973.36,973.36,0,0,0,569.21,581.29ZM557,798.1a1037.8,1037.8,0,0,0-170.4,15.45c-26.06,4.53-52.1,9.53-77.82,15.66-25.56,6.09-37.81,35-25.94,58.48,9.08,17.95,27.94,25.83,49.65,20.92,64.64-14.64,130-24.19,196.24-26.8,55.81-2.2,111.28.84,166.29,10.5,77.54,13.61,150.45,39.85,217.75,81.07A40.12,40.12,0,0,0,943,978.52a41.13,41.13,0,0,0,32.12-33.11c3-17-4.24-33.48-19.34-42.78a668.31,668.31,0,0,0-116.05-56.71C750,812.17,656.74,798.12,557,798.1Z"/><path class="cls-1" d="M637.63,1.35c.13-.45.25-.9.37-1.35h54c.12.46.25.92.37,1.38-3.8,0-7.61.07-11.42.09q-18.19.11-36.38.16C642.26,1.64,640,1.45,637.63,1.35Z"/><path class="cls-1" d="M0,635l1,0q0,25.43,0,50.86c0,.7-.66,1.41-1,2.12Z"/><path class="cls-1" d="M639,1331a3.09,3.09,0,0,0,0-1l50.06,0a5.5,5.5,0,0,0,0,.91Z"/><path class="cls-1" d="M1330,684c-.28-.4-.8-.79-.8-1.19q-.08-17.82,0-35.65c0-.39.53-.77.82-1.16Z"/></g></g></svg>