<svg xmlns="http://www.w3.org/2000/svg" viewBox="0 0 997.44 812"><defs><style>.cls-1{fill:#ddddd5;}</style></defs><title>Asset 2</title><g id="Layer_2" data-name="Layer 2"><g id="Layer_1-2" data-name="Layer 1"><path class="cls-1" d="M671.45,0h34c5.69.81,11.4,1.5,17.07,2.44q66.63,11.15,114.24,59.1a7.11,7.11,0,0,0,7.46,2.25,413.29,413.29,0,0,0,121.2-46.3c1.16-.67,2.45-1.11,4.4-2a195.66,195.66,0,0,1-19,42.08c-17.29,28.73-40.35,51.85-68.62,70,39.62-4.49,77.49-15.08,115.27-31.44-1.79,2.76-2.65,4.15-3.58,5.5A411.69,411.69,0,0,1,899,199.48a8,8,0,0,0-3.62,7.45c.23,12.48.41,25,.21,37.45A511.83,511.83,0,0,1,884,343.47c-26.1,121.8-82.44,227.13-172.38,313.86q-77.91,75.13-178.87,114.54c-55.27,21.71-112.65,34.2-171.87,38.36-4.51.32-9,1.17-13.47,1.77h-66a45.1,45.1,0,0,0-4.54-1c-23.45-2.89-47.1-4.65-70.33-8.79-67-11.94-129.76-35.79-188.49-70.17C12,728.44,6,724.65,0,721c54,4.86,106.89,1,158.91-13.61a410.6,410.6,0,0,0,142.44-72.13C199.06,631.47,131.27,561,110.74,492.7c30.25,5.37,60.07,4.65,89.8-3.51-47.2-11.11-86.44-35-116.81-72.73-30.54-37.95-45.1-81.55-45.29-131.07C67.32,301,97.32,309.64,130.75,311c-44.55-31.69-73.17-72.73-85.4-124.91-13.07-55.8.76-114.46,22.9-147.73C178.84,168.55,319,240.16,489.56,251.94a10,10,0,0,0,.45-2c-.17-1.16-.38-2.3-.61-3.44-7.41-37.09-5.84-73.8,7.4-109.24C523.72,65.27,575.13,20.8,650.2,4,657.23,2.37,664.36,1.3,671.45,0Z"/></g></g></svg>